<?xml version="1.0" encoding="UTF-8"?>
<svg id="Layer_2" xmlns="http://www.w3.org/2000/svg" viewBox="0 0 549.57 182.22">
  <defs>
    <style>
      .cls-1 {
        isolation: isolate;
      }

      .cls-2 {
        fill: #33c678;
        stroke: #fff;
        stroke-miterlimit: 10;
      }
    </style>
  </defs>
  <g id="Layer_1-2" data-name="Layer_1">
    <g id="Layer_1-3" data-name="Layer_1">
      <g>
        <path class="cls-2" d="M166.86,15.29c-4.2-4.2-10.2-5.7-16.1-6.2-4.2-.4-8.1.4-11.9,1,0-.3-.1-.6-.2-.9,0-.7-.2-1.3-.5-2.2-.5-1.4-1.2-3-2.6-4.4s-4-2.4-6.3-2c-8.9,1.5-17.8,4.9-29.2,9.4-.3-.5-.3-1.2-.7-1.7-.7-1-1.7-1.9-3-2.5-1.4-.6-3.2-.7-4.6-.2h0c-10.1,3.6-19.3,10.8-27.4,18.4-.3-.3-.6-.7-.9-.9-2.4-1.3-5-1.4-7.4,0-13,7.4-23.2,17.6-31.1,29.7-.8-.1-1.8-.4-2.4-.3-2.4.3-3.6.8-5.4,2.5-6.6,6.6-10.4,16.5-12.1,27-1.3,8.2-.8,16.7.8,24.8-1.1,0-2.3.3-3.4,1.2-1.3,1.1-2.2,3.3-1.9,5,2.2,15.4,11.8,28.9,25.8,42.9s27.5,23.7,42.9,25.8c1.7.2,3.9-.6,5-1.9,1-1.2,1.1-2.4,1.2-3.4,8.1,1.5,16.6,2.1,24.8.8,10.6-1.6,20.4-5.4,27-12.1,1.7-1.7,2.2-3,2.5-5.4,0-.7-.2-1.6-.3-2.4,12.1-7.9,22.4-18.1,29.7-31.1,1.4-2.5,1.3-5,0-7.5-.2-.4-.7-.6-.9-.9,7.6-8.2,14.8-17.4,18.4-27.4.5-1.5.4-3.3-.2-4.6-.6-1.4-1.5-2.3-2.5-3-.5-.4-1.2-.4-1.7-.7,4.5-11.4,7.8-20.3,9.4-29.2.4-2.3-.6-4.9-2-6.3-1.4-1.4-2.9-2.1-4.4-2.6-.9-.3-1.6-.4-2.3-.5-.3,0-.6-.1-.8-.2.6-3.8,1.3-7.6,1-11.9-.5-5.9-1.9-11.9-6.2-16.1h-.1ZM160.66,21.39c1.8,1.8,3.3,5.9,3.7,10.7.3,3.1,0,6.4-.3,9.3-5.7-1.6-11.7-3.5-17.9-5.6-2.1-6.1-4-12-5.5-17.7,2.9-.4,6.2-.6,9.3-.3,4.8.4,8.9,1.9,10.7,3.7v-.1ZM172.66,52.29c-1.3,7.1-3.8,14.5-7.7,24.3-6.4-10.8-11.4-21.1-15.3-31,5.2,1.6,10.5,3.4,15.5,4.8.5.3,1.1.5,1.7.6.6,0,1.2.2,1.9.3,1.2.3,2.4.6,3.5.8h0c.3,0,.2,0,.4.2h0ZM129.76,9.49c0,.2,0,.1.2.3h0c.2,1.1.5,2.3.8,3.5.1.7.2,1.4.3,2,0,.6.3,1.2.6,1.7,1.4,4.9,3.1,10.2,4.7,15.3-9.5-3.9-19.6-9-30.3-15.4,9.6-3.7,16.8-6.2,23.8-7.5l-.1.1ZM139.26,42.69c3.9,10.7,9.2,22,15.9,33.9-11-3.3-23.1-7.5-36.2-13.4-6-13.4-10.3-25.6-13.7-36.8,12,6.9,23.3,12.3,33.9,16.3h.1ZM92.76,14.79c.2.5.4.7.5,1.5h0c3.1,11.6,7.6,25.8,13.7,40.9-12.7-6.5-25.8-14.2-38.9-24.3,0-.2-.1-.5-.2-.7,7.6-7.3,16.4-13.9,24.9-17.4ZM167.36,89.29c-3.5,8.4-10.1,17.3-17.4,24.9-.3,0-.6-.1-.9-.2-10.1-13.2-17.7-26.2-24.2-38.9,15.1,6.1,29.1,10.6,40.7,13.7h.2c.8.1,1,.3,1.5.5h.1ZM112.56,69.69c6.2,13.3,14.2,27.2,24.2,41.3-13.9-3.4-30.1-8.8-48.4-17.3-8.4-18.3-13.8-34.5-17.2-48.4,14.1,10,28.1,18.2,41.4,24.3v.1ZM58.96,31.49c0,.2.1.5.2.7h-.1c2.9,14.2,7.4,33.3,16.5,55.1-14.3-7.6-29.1-16.6-44.5-29,7-11,16.4-19.9,27.9-26.8ZM150.56,123.09c-6.8,11.6-15.7,20.9-26.8,28-12.5-15.4-21.5-30.2-29-44.5,22,9.1,41.2,13.6,55.3,16.5h.5ZM81.96,100.19c7.4,15.6,17.4,32.2,30.6,49.4-16.3-2.8-36.7-8.6-60.4-19.6-11-23.7-16.8-44-19.6-60.3,17.2,13.1,33.7,23.1,49.4,30.5h0ZM22.46,61.99v.1l-.2.2s.2.1.3.2c2.1,16.2,7.4,37.4,17.8,61.9-8.3-4.3-16.8-9.1-25.6-14.8-2.2-8-2.6-17.5-1.3-26.2,1.4-8.9,4.7-16.7,9.1-21.5l-.1.1ZM119.66,159.59c0,.1.1.2.2.3-4.8,4.2-12.5,7.5-21.2,8.8-8.7,1.4-18.2.9-26.2-1.3-5.6-8.8-10.4-17.3-14.7-25.6,24.5,10.3,45.7,15.7,61.9,17.8h0ZM45.56,136.49c5.4,11.3,11.7,23,19.5,35.4-10.7-3-21.3-10.4-32.9-22s-19-22.2-22-32.9c12.3,7.8,24.1,14.1,35.3,19.5h.1Z"/>
        <g class="cls-1">
          <g class="cls-1">
            <path fill="#2d2513" d="M265.19,168.74c-.79,3.17-2.9,5.28-6.07,5.28h-26.14c-3.17,0-5.54-2.11-6.07-5.28l-13.73-155.53c-.53-3.17,1.32-5.28,4.49-5.28h21.65c3.17,0,5.54,2.11,5.81,5.28l6.87,81.59c.26,1.58,1.58,2.64,2.9,2.64s2.64-1.06,2.9-2.64l15.58-73.67c.79-3.17,2.64-5.28,5.81-5.28h3.17c3.17,0,5.02,2.11,5.81,5.28l15.58,73.67c.26,1.58,1.58,2.64,2.9,2.64s2.64-1.06,2.9-2.64l6.87-81.59c.26-3.17,2.64-5.28,5.81-5.28h21.65c3.17,0,5.02,2.11,4.49,5.28l-13.73,155.53c-.53,3.17-2.9,5.28-6.07,5.28h-23.5c-3.17,0-5.28-2.11-6.07-5.28l-15.31-56.51c-.26-1.58-1.58-2.38-2.9-2.38s-2.38.79-2.9,2.38l-12.67,56.51Z"/>
            <path fill="#2d2513" d="M441.31,95.6c3.17,0,5.28,2.11,5.28,5.28v29.84c0,30.63-13.2,44.36-42.25,44.36h-.79c-29.05,0-42.25-13.73-42.25-44.36V51.5c0-30.63,13.2-44.36,42.25-44.36h.79c29.05,0,42.25,13.73,42.25,44.36v11.62c0,3.17-2.11,5.28-5.28,5.28h-21.12c-3.17,0-5.28-2.11-5.28-5.28v-16.64c0-8.71-5.54-12.94-10.83-12.94-5.54,0-11.09,4.23-11.09,12.94v89.25c0,8.45,5.55,12.94,11.09,12.94s10.83-4.49,10.83-12.94v-34.85c0-3.17,2.11-5.28,5.28-5.28h21.12Z"/>
            <path fill="#2d2513" d="M544.29,95.6c3.17,0,5.28,2.11,5.28,5.28v29.84c0,30.63-13.2,44.36-42.25,44.36h-.79c-29.05,0-42.25-13.73-42.25-44.36V51.5c0-30.63,13.2-44.36,42.25-44.36h.79c29.05,0,42.25,13.73,42.25,44.36v11.62c0,3.17-2.11,5.28-5.28,5.28h-21.12c-3.17,0-5.28-2.11-5.28-5.28v-16.64c0-8.71-5.54-12.94-10.83-12.94-5.54,0-11.09,4.23-11.09,12.94v89.25c0,8.45,5.55,12.94,11.09,12.94s10.83-4.49,10.83-12.94v-34.85c0-3.17,2.11-5.28,5.28-5.28h21.12Z"/>
          </g>
        </g>
      </g>
    </g>
  </g>
</svg>